#!OML:ASF I:\Actors\actors\Patient Classification 1\Patient 1\Session 1\Subject1.ASF
:FULLY-SPECIFIED
:DEGREES
850
root 0.759139 17.6621 8.43816 7.81079 -0.94625 -10.2553
lowerback 2.67865 0.0191124 6.39623
upperback -6.27312 0.623356 2.37111
thorax -8.08358 -0.00935968 -1.13612
lowerneck -10.1227 -10.3674 -6.93857
upperneck 21.1209 -15.3523 9.03977
head 9.58683 -6.89 2.37003
rclavicle -5.69021e-015 4.8901e-014
rhumerus -34.3917 77.4546 -129.191
rradius 124.395
rwrist 2.87333
rhand -7.05884 -34.4069
rfingers 7.12502
rthumb 18.8142 -63.5171
lclavicle -5.69021e-015 4.8901e-014
lhumerus 55.2126 -71.8594 35.5021
lradius 108.347
lwrist 42.7848
lhand 18.3163 -9.80904
lfingers 7.12502
lthumb 42.9635 14.4498
rfemur -8.40897 19.7192 27.1211
rtibia 11.2127
rfoot -13.0977 -16.0644
rtoes -3.12438
lfemur -0.316347 -30.9865 -5.87281
ltibia 0.0973871
lfoot -13.6888 39.8836
ltoes -1.49421
851
root 0.756722 17.6732 8.43598 7.99287 -0.859393 -9.79229
lowerback 2.46345 0.0107871 5.93693
upperback -6.36347 0.558791 2.23728
thorax -8.05536 -0.0179228 -1.01497
lowerneck -10.2191 -10.2036 -6.64757
upperneck 20.9644 -15.1181 8.9133
head 9.49341 -6.77279 2.31403
rclavicle 1.37658e-014 -1.78906e-014
rhumerus -32.8135 77.468 -127.512
rradius 124.377
rwrist 2.67831
rhand -5.5779 -34.4091
rfingers 7.12502
rthumb 20.2381 -63.3748
lclavicle 1.37658e-014 -1.78906e-014
lhumerus 47.6941 -71.3457 43.5595
lradius 108.603
lwrist 43.202
lhand 18.0272 -10.8472
lfingers 7.12502
lthumb 42.693 13.5063
rfemur -8.63743 19.7419 26.4773
rtibia 11.1291
rfoot -13.1035 -16.237
rtoes -2.91822
lfemur -0.639405 -31.285 -6.26957
ltibia 0.157604
lfoot -13.8521 40.0222
ltoes -1.03575
852
root 0.756349 17.6791 8.43229 8.04788 -0.72709 -9.68348
lowerback 2.56103 -0.0498619 5.98418
upperback -6.45855 0.485627 2.12146
thorax -8.22052 -0.066641 -1.15531
lowerneck -10.4428 -10.0153 -6.37261
upperneck 20.6708 -14.8849 9.02263
head 9.39927 -6.63346 2.33326
rclavicle -1.02871e-014 2.0276e-014
rhumerus -31.5579 77.3804 -126.255
rradius 124.131
rwrist 1.67499
rhand -3.83981 -33.8163
rfingers 7.12502
rthumb 21.9078 -62.596
lclavicle -1.02871e-014 2.0276e-014
lhumerus 38.5242 -70.3782 52.9948
lradius 108.805
lwrist 44.4899
lhand 21.6259 -10.3506
lfingers 7.12502
lthumb 46.0466 12.7245
rfemur -8.67478 19.7149 26.3199
rtibia 11.0382
rfoot -13.0759 -16.3808
rtoes -3.05766
lfemur -0.790883 -31.383 -6.30451
ltibia 0.154287
lfoot -13.843 39.9889
ltoes -0.902744
853
root 0.756143 17.6803 8.43121 8.06758 -0.719422 -9.67684
lowerback 2.68136 -0.0679972 6.15792
upperback -6.52353 0.478767 2.01071
thorax -8.36351 -0.0900731 -1.36736
lowerneck -10.6348 -9.86611 -6.15722
upperneck 20.0932 -14.7058 9.30424
head 9.22585 -6.51736 2.41483
rclavicle 1.06101e-014 1.51076e-014
rhumerus -30.5941 76.9632 -125.166
rradius 123.747
rwrist 0.33436
rhand -2.22268 -32.6763
rfingers 7.12502
rthumb 23.4598 -61.266
lclavicle 1.06101e-014 1.51076e-014
lhumerus 28.4309 -68.7593 63.1675
lradius 108.937
lwrist 45.5295
lhand 22.5694 -8.81421
lfingers 7.12502
lthumb 46.9207 13.8869
rfemur -8.64707 19.7905 26.3083
rtibia 10.9517
rfoot -13.0776 -16.4585
rtoes -2.76412
lfemur -0.776128 -31.4757 -6.30965
ltibia 0.0948325
lfoot -13.8518 40.0755
ltoes -0.786855
854
root 0.756964 17.6785 8.43263 8.09107 -0.843401 -9.63537
lowerback 2.69619 -0.0191895 6.30029
upperback -6.53554 0.547316 1.88901
thorax -8.38033 -0.071083 -1.58181
lowerneck -10.7283 -9.72284 -5.8406
upperneck 19.279 -14.5056 9.49517
head 8.93727 -6.40561 2.45977
rclavicle 1.83876e-015 3.1408e-014
rhumerus -30.5253 76.2686 -124.592
rradius 123.41
rwrist 0.308216
rhand -2.03797 -31.3397
rfingers 7.12502
rthumb 23.637 -59.9067
lclavicle 1.83876e-015 3.1408e-014
lhumerus 18.2745 -66.069 73.2644
lradius 108.561
lwrist 44.2641
lhand 24.4883 -9.29049
lfingers 7.12502
lthumb 48.691 12.5934
rfemur -8.60118 19.9803 26.2554
rtibia 10.8518
rfoot -13.1364 -16.5079
rtoes -2.26261
lfemur -0.660795 -31.6229 -6.4303
ltibia 0.0126063
lfoot -13.9914 40.3021
ltoes -0.608391
855
root 0.762595 17.6709 8.43234 8.02873 -0.96186 -9.90693
lowerback 2.78662 0.0218443 6.89678
upperback -6.49251 0.643636 1.80403
thorax -8.38258 -0.0652507 -2.01338
lowerneck -10.8241 -9.53397 -5.48504
upperneck 18.4922 -14.2488 9.67836
head 8.65366 -6.26617 2.50261
rclavicle -9.24349e-015 -3.18055e-015
rhumerus -31.1726 75.1047 -124.449
rradius 123.254
rwrist 2.44524
rhand -3.28554 -30.0489
rfingers 7.12502
rthumb 22.4399 -58.7653
lclavicle -9.24349e-015 -3.18055e-015
lhumerus 9.47764 -62.4497 81.6644
lradius 107.958
lwrist 42.028
lhand 24.8357 -10.1747
lfingers 7.12502
lthumb 49.0102 11.5527
rfemur -8.42535 20.0552 26.6143
rtibia 10.7382
rfoot -13.1048 -16.4271
rtoes -2.33323
lfemur -0.418262 -31.5783 -6.24696
ltibia -0.0997703
lfoot -14.0787 40.3786
ltoes -0.519192
856
root 0.778081 17.6503 8.42584 7.7155 -0.99537 -11.0657
lowerback 3.18512 0.00588669 8.60327
upperback -6.34192 0.785674 1.92312
thorax -8.45543 -0.100893 -2.8515
lowerneck -11.0533 -9.3572 -5.16665
upperneck 17.9123 -14.0132 9.817
head 8.46819 -6.1325 2.52464
rclavicle -1.70955e-014 3.22031e-014
rhumerus -31.528 73.3194 -123.852
rradius 123.362
rwrist 5.22542
rhand -4.49274 -28.717
rfingers 7.12502
rthumb 21.2807 -57.5687
lclavicle -1.70955e-014 3.22031e-014
lhumerus 2.67999 -58.1018 87.7063
lradius 107.094
lwrist 39.7143
lhand 22.2488 -11.1018
lfingers 7.12502
lthumb 46.6239 11.7283
rfemur -7.95391 19.7554 28.118
rtibia 10.6889
rfoot -12.9925 -15.9796
rtoes -2.80946
lfemur 0.151032 -31.1059 -5.15035
ltibia -0.315815
lfoot -13.9168 40.056
ltoes -0.73651
857
root 0.770356 17.6508 8.43247 7.90194 -1.49719 -10.4955
lowerback 2.87239 0.127626 8.00353
upperback -6.29054 0.85246 1.7091
thorax -8.19804 -0.0272023 -2.75124
lowerneck -11.2537 -9.14753 -4.90912
upperneck 17.3322 -13.7289 9.9895
head 8.28221 -5.97877 2.57425
rclavicle 7.70291e-015 5.96354e-015
rhumerus -31.5696 71.0194 -122.828
rradius 123.816
rwrist 6.87375
rhand -5.16019 -27.3256
rfingers 7.12502
rthumb 20.6395 -56.2482
lclavicle 7.70291e-015 5.96354e-015
lhumerus -2.5719 -53.4221 91.6697
lradius 106.358
lwrist 38.2756
lhand 17.4362 -11.6881
lfingers 7.12502
lthumb 42.1397 12.855
rfemur -8.26417 20.1749 27.3708
rtibia 10.8275
rfoot -12.9849 -15.959
rtoes -2.90852
lfemur 0.163204 -31.2066 -5.84215
ltibia -0.318781
lfoot -14.3247 40.507
ltoes -0.140795
858
root 0.773395 17.6398 8.43192 7.74331 -1.77439 -10.8703
lowerback 3.11059 0.120438 8.58964
upperback -6.17188 0.904137 1.73491
thorax -8.20694 -0.0354871 -3.05683
lowerneck -11.4005 -8.85257 -4.64838
upperneck 16.7236 -13.3248 10.1657
head 8.06904 -5.77187 2.64175
rclavicle -1.04362e-014 -6.36111e-015
rhumerus -31.5399 68.3899 -121.72
rradius 124.468
rwrist 7.57377
rhand -5.79175 -26.0538
rfingers 7.12502
rthumb 20.0325 -55.0411
lclavicle -1.04362e-014 -6.36111e-015
lhumerus -6.8448 -48.6003 94.0614
lradius 106.016
lwrist 38.327
lhand 12.1077 -12.0814
lfingers 7.12502
lthumb 37.1226 13.9512
rfemur -8.09385 20.1759 27.8829
rtibia 10.9379
rfoot -13.002 -15.662
rtoes -3.02579
lfemur 0.554601 -30.9119 -5.59566
ltibia -0.392429
lfoot -14.3914 40.4777
ltoes -0.24552
859
root 0.777851 17.6284 8.42926 7.55891 -1.98427 -11.2671
lowerback 3.43463 0.064387 9.19232
upperback -6.03103 0.905157 1.79503
thorax -8.24888 -0.0686796 -3.3308
lowerneck -11.584 -8.53819 -4.24334
upperneck 16.1289 -12.8816 10.1448
head 7.84177 -5.5539 2.62486
rclavicle -6.16232e-015 1.19271e-015
rhumerus -31.1366 65.4753 -120.173
rradius 125.103
rwrist 8.90951
rhand -6.82648 -24.7832
rfingers 7.12502
rthumb 19.0377 -53.8715
lclavicle -6.16232e-015 1.19271e-015
lhumerus -10.2939 -43.8144 95.3389
lradius 105.906
lwrist 39.6951
lhand 7.46287 -12.5205
lfingers 7.12502
lthumb 32.7162 14.5391
rfemur -7.94013 20.0229 28.4093
rtibia 11.1027
rfoot -13.0569 -15.2916
rtoes -3.19436
lfemur 0.869004 -30.5478 -5.28947
ltibia -0.380992
lfoot -14.4408 40.3098
ltoes -0.255121
860
root 0.766417 17.6383 8.43607 7.82831 -2.41345 -10.0945
lowerback 3.13988 0.120572 7.80472
upperback -6.03608 0.825787 1.51021
thorax -8.0749 -0.0251573 -2.85248
lowerneck -11.6899 -8.23553 -3.74815
upperneck 15.554 -12.4634 10.0499
head 7.60176 -5.35177 2.56876
rclavicle 7.30534e-015 1.51076e-014
rhumerus -30.7428 62.2499 -118.442
rradius 125.665
rwrist 11.1314
rhand -9.38968 -23.5162
rfingers 7.12502
rthumb 16.5713 -52.8286
lclavicle 7.30534e-015 1.51076e-014
lhumerus -13.3769 -39.526 96.0352
lradius 106.041
lwrist 41.3854
lhand 2.16283 -12.6911
lfingers 7.12502
lthumb 27.6603 15.2952
rfemur -8.46988 20.2091 26.8769
rtibia 11.3196
rfoot -13.1001 -15.2322
rtoes -3.51793
lfemur 0.55586 -30.8031 -6.61155
ltibia -0.132774
lfoot -14.8898 40.7785
ltoes 0.325163
861
root 0.774677 17.6251 8.43205 7.511 -2.47917 -11.0867
lowerback 3.79889 0.0662577 9.04573
upperback -5.96025 0.927626 1.70645
thorax -8.38032 -0.0555989 -3.34971
lowerneck -11.8573 -7.96142 -3.4029
upperneck 15.3123 -12.1241 10.0852
head 7.50918 -5.17019 2.56241
rclavicle 8.00108e-015 -2.0276e-014
rhumerus -29.1913 60.703 -115.495
rradius 125.636
rwrist 14.6208
rhand -15.1353 -24.5533
rfingers 7.12502
rthumb 11.0342 -54.2432
lclavicle 8.00108e-015 -2.0276e-014
lhumerus -16.461 -36.2296 96.4571
lradius 106.529
lwrist 42.7884
lhand -0.803034 -14.0346
lfingers 7.12502
lthumb 24.821 14.3745
rfemur -8.06052 19.8438 28.1887
rtibia 11.4127
rfoot -13.0597 -14.775
rtoes -3.94493
lfemur 1.09989 -30.3855 -5.6802
ltibia -0.268936
lfoot -14.6733 40.5313
ltoes -0.298516
862
root 0.759117 17.6416 8.44337 7.90835 -2.96782 -9.76067
lowerback 3.40007 0.225237 7.30534
upperback -6.0801 0.952674 1.44317
thorax -8.25932 0.0581422 -2.6606
lowerneck -12.2018 -7.74589 -3.38696
upperneck 15.3679 -11.8667 10.2659
head 7.58154 -5.01582 2.63594
rclavicle -1.81888e-014 2.18663e-014
rhumerus -29.9573 56.5701 -114.216
rradius 125.481
rwrist 18.4657
rhand -17.6903 -24.2408
rfingers 7.12502
rthumb 8.56917 -54.0469
lclavicle -1.81888e-014 2.18663e-014
lhumerus -19.5288 -34.0531 96.876
lradius 107.278
lwrist 43.9933
lhand -6.77514 -15.535
lfingers 7.12502
lthumb 19.0871 13.5484
rfemur -8.70912 20.3007 26.4349
rtibia 11.5319
rfoot -13.0642 -14.9006
rtoes -3.55866
lfemur 0.702072 -30.799 -7.10943
ltibia -0.129364
lfoot -15.2345 41.2441
ltoes 0.606679
863
root 0.756798 17.6429 8.45068 8.01225 -3.1074 -9.69531
lowerback 3.33541 0.307386 7.07007
upperback -6.08013 1.04526 1.52551
thorax -8.21289 0.122975 -2.4512
lowerneck -12.4963 -7.57409 -3.51774
upperneck 15.4347 -11.6435 10.4505
head 7.65948 -4.8869 2.73272
rclavicle 1.00138e-014 -2.22639e-014
rhumerus -31.2761 52.7343 -113.186
rradius 124.865
rwrist 22.8478
rhand -20.9813 -26.0615
rfingers 7.12502
rthumb 5.39239 -55.9729
lclavicle 1.00138e-014 -2.22639e-014
lhumerus -22.5717 -32.6949 97.5686
lradius 108.228
lwrist 45.5329
lhand -13.2557 -17.6931
lfingers 7.12502
lthumb 12.8467 11.8916
rfemur -8.7853 20.3613 26.3219
rtibia 11.473
rfoot -13.0198 -14.8137
rtoes -3.44646
lfemur 0.716042 -30.9011 -7.21296
ltibia -0.182708
lfoot -15.3891 41.4877
ltoes 0.885326
864
root 0.765287 17.6331 8.45305 7.873 -2.95352 -10.6039
lowerback 3.58581 0.30687 8.07663
upperback -5.98479 1.16076 1.8166
thorax -8.25102 0.128043 -2.71693
lowerneck -12.6542 -7.40021 -3.41814
upperneck 15.3682 -11.4055 10.4228
head 7.64038 -4.76653 2.73202
rclavicle 2.18663e-015 -7.95139e-016
rhumerus -33.199 49.1419 -112.699
rradius 123.963
rwrist 24.4523
rhand -24.8393 -28.0369
rfingers 7.12502
rthumb 1.66681 -58.0101
lclavicle 2.18663e-015 -7.95139e-016
lhumerus -25.5442 -31.6255 98.5762
lradius 109.387
lwrist 47.194
lhand -17.705 -20.3682
lfingers 7.12502
lthumb 8.55502 9.43849
rfemur -8.43981 20.0969 27.4872
rtibia 11.3516
rfoot -12.9669 -14.6179
rtoes -3.75199
lfemur 1.01823 -30.6988 -6.26141
ltibia -0.346543
lfoot -15.1893 41.2967
ltoes 0.58429
